<svg xmlns="http://www.w3.org/2000/svg" xmlns:xlink="http://www.w3.org/1999/xlink" width="500" zoomAndPan="magnify" viewBox="0 0 375 374.999991" height="500" preserveAspectRatio="xMidYMid meet" version="1.0">
  <defs>
    <g/>
    <clipPath id="b9b59f2f3c">
      <rect x="0" width="176" y="0" height="107"/>
    </clipPath>
    <clipPath id="9f5aa6139a">
      <rect x="0" width="88" y="0" height="88"/>
    </clipPath>
  </defs>
  <!-- Background rectangles removed for transparency -->
  <g transform="matrix(1, 0, 0, 1, 104, 118)">
    <g clip-path="url(#b9b59f2f3c)">
      <g fill="#5D3A1A" fill-opacity="1">
        <g transform="translate(1.157517, 83.205184)">
          <g>
            <path d="M 2.109375 -41.171875 L 22.65625 -61.796875 L 22.65625 0 L 2.109375 0 Z M 2.109375 -41.171875 "/>
          </g>
        </g>
      </g>
      <g fill="#5D3A1A" fill-opacity="1">
        <g transform="translate(23.811805, 83.205184)">
          <g>
            <path d="M 41.171875 -20.546875 L 61.734375 -41.171875 L 61.734375 -20.546875 C 61.734375 -17.742188 61.195312 -15.09375 60.125 -12.59375 C 59.0625 -10.101562 57.585938 -7.914062 55.703125 -6.03125 C 53.816406 -4.144531 51.640625 -2.664062 49.171875 -1.59375 C 46.703125 -0.53125 44.035156 0 41.171875 0 L -0.65625 0 C -1.914062 0 -2.96875 -0.421875 -3.8125 -1.265625 C -4.65625 -2.117188 -5.078125 -3.175781 -5.078125 -4.4375 L -5.078125 -16.125 C -5.078125 -17.382812 -4.65625 -18.4375 -3.8125 -19.28125 C -2.96875 -20.125 -1.914062 -20.546875 -0.65625 -20.546875 Z M 7.765625 12.34375 L 18.078125 2.109375 L 28.390625 12.34375 L 18.078125 22.65625 Z M 28.390625 12.34375 L 38.703125 2.109375 L 48.953125 12.34375 L 38.703125 22.65625 Z M 28.390625 12.34375 "/>
          </g>
        </g>
      </g>
      <g fill="#5D3A1A" fill-opacity="1">
        <g transform="translate(87.635917, 83.205184)">
          <g>
            <path d="M 2.109375 -20.546875 L 22.65625 -41.171875 L 22.65625 0 L 2.109375 20.546875 Z M 2.109375 -20.546875 "/>
          </g>
        </g>
      </g>
      <g fill="#5D3A1A" fill-opacity="1">
        <g transform="translate(110.290204, 83.205184)">
          <g>
            <path d="M 38.703125 -53.53125 L 28.390625 -43.21875 L 18.078125 -53.53125 L 28.390625 -63.84375 Z M 28.390625 -39.078125 L 18.078125 -28.828125 L 7.765625 -39.078125 L 18.078125 -49.390625 Z M 48.953125 -39.078125 L 38.703125 -28.828125 L 28.390625 -39.078125 L 38.703125 -49.390625 Z M 41.171875 -20.546875 L 61.734375 -41.171875 L 61.734375 -20.546875 C 61.734375 -17.742188 61.195312 -15.09375 60.125 -12.59375 C 59.0625 -10.101562 57.585938 -7.914062 55.703125 -6.03125 C 53.816406 -4.144531 51.640625 -2.664062 49.171875 -1.59375 C 46.703125 -0.53125 44.035156 0 41.171875 0 L -0.65625 0 C -1.914062 0 -2.96875 -0.421875 -3.8125 -1.265625 C -4.65625 -2.117188 -5.078125 -3.175781 -5.078125 -4.4375 L -5.078125 -16.125 C -5.078125 -17.382812 -4.65625 -18.4375 -3.8125 -19.28125 C -2.96875 -20.125 -1.914062 -20.546875 -0.65625 -20.546875 Z M 41.171875 -20.546875 "/>
          </g>
        </g>
      </g>
    </g>
  </g>
  <g transform="matrix(1, 0, 0, 1, 190, 109)">
    <g clip-path="url(#9f5aa6139a)">
      <g fill="#5D3A1A" fill-opacity="1">
        <g transform="translate(63.664874, 63.489416)">
          <g>
            <path d="M -36.5 -15.25 L -36.515625 -25.828125 L -31.171875 -31.171875 C -32.171875 -32.171875 -32.835938 -33.3125 -33.171875 -34.59375 C -33.503906 -35.875 -33.503906 -37.148438 -33.171875 -38.421875 C -32.835938 -39.691406 -32.179688 -40.816406 -31.203125 -41.796875 C -30.234375 -42.765625 -29.109375 -43.414062 -27.828125 -43.75 C -26.554688 -44.09375 -25.273438 -44.101562 -23.984375 -43.78125 C -22.691406 -43.457031 -21.546875 -42.796875 -20.546875 -41.796875 L -15.25 -36.5 Z M -36.5 -15.25 "/>
          </g>
        </g>
      </g>
    </g>
  </g>
</svg>
